<svg xmlns="http://www.w3.org/2000/svg" viewBox="0 0 64 64" fill="none">
  <!-- Dark background circle -->
  <circle cx="32" cy="32" r="32" fill="#0A0A0A"/>
  <!-- Pink glow ring -->
  <circle cx="32" cy="32" r="28" stroke="#FF77C9" stroke-width="1.5" stroke-opacity="0.25" fill="none"/>
  <!-- Shelby S mark — the hexagonal icon from their logo, scaled to fit -->
  <!-- Left vertical bar of S-hex -->
  <path
    fill="#FF77C9"
    d="
      M20.5 22.5
      c0.9-1.56 3.15-1.56 4.05 0
      l8.5 14.72
      a8.5 8.5 0 0 1 0 8.56
      l-8.5 14.72
      c-0.9 1.56-3.15 1.56-4.05 0
      L12 45.78
      a8.5 8.5 0 0 1 0-8.56
      Z
    "
    opacity="0"
  />
  <!-- Clean centred S glyph from Shelby logotype, scaled to ~36px wide -->
  <g transform="translate(14, 18) scale(0.278)">
    <path fill="#FF77C9" d="
      M44.602 1.645c5.316 0 8.418 2.562 8.513 6.614h-4.62
      c-.095-1.646-1.552-2.626-3.893-2.626-2.151 0-3.607.98-3.607 2.468
      0 1.487 1.075 2.184 3.417 2.467l2.374.286c4.43.569 6.645 2.752 6.645 6.614
      0 4.43-3.228 7.343-8.608 7.343-5.665 0-9.113-2.785-9.177-7.438h4.65
      c.031 2.058 1.773 3.386 4.526 3.386 2.374 0 3.893-1.171 3.893-2.975
      0-1.55-.95-2.374-3.166-2.658l-2.562-.316
      c-4.525-.57-6.677-2.817-6.677-6.424
      0-4.083 3.355-6.741 8.292-6.741Z
    "/>
    <path fill="#FF77C9" d="
      M5.628 3.813c.22-.38.766-.38.986 0l2.07 3.585
      c-.44.471-.835.998-1.172 1.581v.002
      a8.544 8.544 0 0 0 1.172 10.123l-2.07 3.585
      a.569.569 0 0 1-.986 0L1.166 14.96
      a3.415 3.415 0 0 1 0-3.418l4.462-7.729Z
    "/>
    <path fill="#FF77C9" d="
      M13.526 4.937l2.392 4.141
      a3.416 3.416 0 0 0 2.958 1.708h4.78
      a8.545 8.545 0 0 1 .003 4.933h-4.784
      c-1.22 0-2.348.652-2.96 1.709l-2.39 4.143
      a8.55 8.55 0 0 1-2.317-.92
      8.513 8.513 0 0 1-1.955-1.546l2.391-4.144
      a3.414 3.414 0 0 0 0-3.417L9.253 7.4
      a8.536 8.536 0 0 1 4.273-2.464v.002Z
    "/>
    <path fill="#FF77C9" d="
      M27.085 16.21a.57.57 0 0 1 .494.854l-4.462 7.729
      a3.417 3.417 0 0 1-2.96 1.709h-8.924
      a.57.57 0 0 1-.492-.854l2.07-3.587
      a8.545 8.545 0 0 0 10.135-5.851h4.14Z
    "/>
    <path fill="#FF77C9" d="
      M21.158 0c1.22 0 2.35.651 2.96 1.71l4.462 7.73
      a.569.569 0 0 1-.492.854h-4.144
      a8.512 8.512 0 0 0-3.906-4.933
      8.514 8.514 0 0 0-6.226-.918L11.741.854
      A.57.57 0 0 1 12.233 0h8.925Z
    "/>
  </g>
</svg>
